<svg width="53" height="22" viewBox="0 0 53 22" fill="none" xmlns="http://www.w3.org/2000/svg">
<path d="M8.97 16H7.462V16.416C7.462 16.988 7.31033 17.4863 7.007 17.911C6.71233 18.3357 6.305 18.6607 5.785 18.886C5.27367 19.1113 4.70167 19.224 4.069 19.224C3.40167 19.224 2.79933 19.0983 2.262 18.847C1.72467 18.6043 1.3 18.2663 0.988 17.833C0.684667 17.3997 0.533 16.9143 0.533 16.377C0.533 15.779 0.702 14.466 1.04 12.438L2.21 12.503C2.08 13.3263 1.96733 14.102 1.872 14.83C1.78533 15.5493 1.742 16.0303 1.742 16.273C1.742 16.6197 1.84167 16.9317 2.041 17.209C2.24033 17.495 2.51333 17.716 2.86 17.872C3.21533 18.0367 3.60533 18.119 4.03 18.119C4.654 18.119 5.174 17.95 5.59 17.612C6.01467 17.2827 6.227 16.8363 6.227 16.273V6.744H7.462V14.895H8.97V16ZM12.1476 9.5V16H8.97559V14.895H10.9126V9.5H12.1476ZM10.1066 17.04H11.2116V18.288H10.1066V17.04ZM11.8486 17.04H12.9406V18.288H11.8486V17.04ZM20.3803 14.895V16H13.6723V14.895H17.8843V13.699C17.8843 12.4683 17.646 11.6017 17.1693 11.099C16.6927 10.5877 16.1337 10.332 15.4923 10.332H14.3613L14.2703 9.409C14.4003 9.36567 14.6127 9.32233 14.9073 9.279C15.202 9.23567 15.4793 9.214 15.7393 9.214C16.3633 9.214 16.9267 9.36567 17.4293 9.669C17.9407 9.96367 18.348 10.4403 18.6513 11.099C18.9547 11.7577 19.1063 12.6027 19.1063 13.634V14.895H20.3803ZM28.553 14.895V16H27.084C26.6593 16 26.2216 15.948 25.771 15.844C25.329 15.74 24.913 15.597 24.523 15.415C24.1503 15.597 23.743 15.74 23.301 15.844C22.859 15.948 22.43 16 22.014 16H20.376V14.895H21.975C22.417 14.895 22.872 14.8127 23.34 14.648C22.7073 14.1453 22.2003 13.5863 21.819 12.971C21.4463 12.347 21.2513 11.7793 21.234 11.268L21.195 10.28C21.715 9.994 22.2566 9.76867 22.82 9.604C23.392 9.43933 23.9553 9.357 24.51 9.357C25.0646 9.357 25.628 9.43933 26.2 9.604C26.7806 9.76867 27.3353 9.994 27.864 10.28L27.812 11.268C27.7946 11.7793 27.5953 12.347 27.214 12.971C26.8413 13.5863 26.3343 14.1453 25.693 14.648C26.1696 14.8127 26.629 14.895 27.071 14.895H28.553ZM22.443 10.904C22.443 11.502 22.625 12.0827 22.989 12.646C23.3616 13.2093 23.873 13.6947 24.523 14.102C25.1816 13.686 25.6973 13.2007 26.07 12.646C26.4426 12.0827 26.629 11.502 26.629 10.904C25.8316 10.618 25.1296 10.475 24.523 10.475C23.925 10.475 23.2316 10.618 22.443 10.904ZM31.7238 9.5V16H28.5518V14.895H30.4888V9.5H31.7238ZM29.6958 7.03H30.8008V8.291H29.6958V7.03ZM31.4378 7.03H32.5298V8.291H31.4378V7.03Z" fill="#949D9E"/>
<path d="M39 17H51M46.1896 6.54114C46.1896 6.54114 46.1896 7.63089 47.2794 8.72064C48.3691 9.81039 49.4589 9.81039 49.4589 9.81039M41.8798 14.992L44.1682 14.6651C44.4983 14.618 44.8042 14.465 45.04 14.2292L50.5486 8.72064C51.1505 8.11879 51.1505 7.14299 50.5486 6.54114L49.4589 5.45139C48.857 4.84954 47.8812 4.84954 47.2794 5.45139L41.7708 10.96C41.535 11.1958 41.382 11.5017 41.3349 11.8318L41.008 14.1202C40.9353 14.6288 41.3712 15.0647 41.8798 14.992Z" stroke="#6C7275" stroke-width="1.5" stroke-linecap="round"/>
</svg>
